<mxfile host="app.diagrams.net" modified="2022-04-11T08:33:18.551Z" agent="5.0 (Windows NT 10.0; Win64; x64) AppleWebKit/537.36 (KHTML, like Gecko) Chrome/100.0.4896.75 Safari/537.36" etag="d5c2u_85gT-lFY0U8eia" version="17.4.2" type="github">
  <diagram name="Page-1" id="13e1069c-82ec-6db2-03f1-153e76fe0fe0">
    <mxGraphModel dx="1422" dy="-56" grid="1" gridSize="10" guides="1" tooltips="1" connect="1" arrows="1" fold="1" page="1" pageScale="1" pageWidth="1100" pageHeight="850" math="0" shadow="0">
      <root>
        <mxCell id="0" />
        <mxCell id="1" parent="0" />
        <mxCell id="D-5Mkm0WoFAVphHgILJh-1" value="车道软件" style="shape=umlLifeline;perimeter=lifelinePerimeter;whiteSpace=wrap;html=1;container=1;collapsible=0;recursiveResize=0;outlineConnect=0;" parent="1" vertex="1">
          <mxGeometry x="80" y="920" width="100" height="600" as="geometry" />
        </mxCell>
        <mxCell id="D-5Mkm0WoFAVphHgILJh-15" value="白名单查询" style="html=1;verticalAlign=bottom;endArrow=block;rounded=0;" parent="D-5Mkm0WoFAVphHgILJh-1" target="D-5Mkm0WoFAVphHgILJh-2" edge="1">
          <mxGeometry width="80" relative="1" as="geometry">
            <mxPoint x="50" y="60" as="sourcePoint" />
            <mxPoint x="130" y="60" as="targetPoint" />
          </mxGeometry>
        </mxCell>
        <mxCell id="D-5Mkm0WoFAVphHgILJh-21" value="" style="html=1;points=[];perimeter=orthogonalPerimeter;" parent="D-5Mkm0WoFAVphHgILJh-1" vertex="1">
          <mxGeometry x="45" y="50" width="10" height="70" as="geometry" />
        </mxCell>
        <mxCell id="D-5Mkm0WoFAVphHgILJh-22" value="" style="html=1;points=[];perimeter=orthogonalPerimeter;" parent="D-5Mkm0WoFAVphHgILJh-1" vertex="1">
          <mxGeometry x="45" y="150" width="10" height="90" as="geometry" />
        </mxCell>
        <mxCell id="D-5Mkm0WoFAVphHgILJh-23" value="白名单消费、查询" style="html=1;verticalAlign=bottom;endArrow=block;rounded=0;" parent="D-5Mkm0WoFAVphHgILJh-1" edge="1">
          <mxGeometry width="80" relative="1" as="geometry">
            <mxPoint x="60" y="160" as="sourcePoint" />
            <mxPoint x="240" y="160" as="targetPoint" />
          </mxGeometry>
        </mxCell>
        <mxCell id="D-5Mkm0WoFAVphHgILJh-2" value="POS 串口程序 &quot;山东高速&quot;" style="shape=umlLifeline;perimeter=lifelinePerimeter;whiteSpace=wrap;html=1;container=1;collapsible=0;recursiveResize=0;outlineConnect=0;" parent="1" vertex="1">
          <mxGeometry x="280" y="920" width="100" height="600" as="geometry" />
        </mxCell>
        <mxCell id="D-5Mkm0WoFAVphHgILJh-13" value="" style="html=1;points=[];perimeter=orthogonalPerimeter;" parent="D-5Mkm0WoFAVphHgILJh-2" vertex="1">
          <mxGeometry x="45" y="150" width="10" height="90" as="geometry" />
        </mxCell>
        <mxCell id="D-5Mkm0WoFAVphHgILJh-14" value="" style="html=1;points=[];perimeter=orthogonalPerimeter;" parent="D-5Mkm0WoFAVphHgILJh-2" vertex="1">
          <mxGeometry x="45" y="280" width="10" height="60" as="geometry" />
        </mxCell>
        <mxCell id="D-5Mkm0WoFAVphHgILJh-17" value="白名单查询" style="html=1;verticalAlign=bottom;endArrow=block;rounded=0;" parent="D-5Mkm0WoFAVphHgILJh-2" target="D-5Mkm0WoFAVphHgILJh-5" edge="1">
          <mxGeometry width="80" relative="1" as="geometry">
            <mxPoint x="60" y="80" as="sourcePoint" />
            <mxPoint x="140" y="80" as="targetPoint" />
          </mxGeometry>
        </mxCell>
        <mxCell id="D-5Mkm0WoFAVphHgILJh-24" value="白名单消费、查询" style="html=1;verticalAlign=bottom;endArrow=block;rounded=0;" parent="D-5Mkm0WoFAVphHgILJh-2" edge="1">
          <mxGeometry width="80" relative="1" as="geometry">
            <mxPoint x="60" y="170" as="sourcePoint" />
            <mxPoint x="240" y="170" as="targetPoint" />
          </mxGeometry>
        </mxCell>
        <mxCell id="D-5Mkm0WoFAVphHgILJh-36" value="串口上送日志" style="html=1;verticalAlign=bottom;endArrow=block;rounded=0;" parent="D-5Mkm0WoFAVphHgILJh-2" target="D-5Mkm0WoFAVphHgILJh-5" edge="1">
          <mxGeometry width="80" relative="1" as="geometry">
            <mxPoint x="60" y="290" as="sourcePoint" />
            <mxPoint x="140" y="290" as="targetPoint" />
          </mxGeometry>
        </mxCell>
        <mxCell id="D-5Mkm0WoFAVphHgILJh-3" value="POS &quot;信联聚合支付&quot;" style="shape=umlLifeline;perimeter=lifelinePerimeter;whiteSpace=wrap;html=1;container=1;collapsible=0;recursiveResize=0;outlineConnect=0;" parent="1" vertex="1">
          <mxGeometry x="480" y="920" width="100" height="600" as="geometry" />
        </mxCell>
        <mxCell id="D-5Mkm0WoFAVphHgILJh-25" value="" style="html=1;points=[];perimeter=orthogonalPerimeter;" parent="D-5Mkm0WoFAVphHgILJh-3" vertex="1">
          <mxGeometry x="45" y="160" width="10" height="80" as="geometry" />
        </mxCell>
        <mxCell id="D-5Mkm0WoFAVphHgILJh-35" value="" style="html=1;points=[];perimeter=orthogonalPerimeter;" parent="D-5Mkm0WoFAVphHgILJh-3" vertex="1">
          <mxGeometry x="45" y="360" width="10" height="60" as="geometry" />
        </mxCell>
        <mxCell id="D-5Mkm0WoFAVphHgILJh-41" value="信联聚合支付上送日志" style="html=1;verticalAlign=bottom;endArrow=block;rounded=0;entryX=-0.2;entryY=0.2;entryDx=0;entryDy=0;entryPerimeter=0;" parent="D-5Mkm0WoFAVphHgILJh-3" target="D-5Mkm0WoFAVphHgILJh-40" edge="1">
          <mxGeometry width="80" relative="1" as="geometry">
            <mxPoint x="60" y="370" as="sourcePoint" />
            <mxPoint x="140" y="370" as="targetPoint" />
          </mxGeometry>
        </mxCell>
        <mxCell id="D-5Mkm0WoFAVphHgILJh-4" value="老聚合应用" style="shape=umlLifeline;perimeter=lifelinePerimeter;whiteSpace=wrap;html=1;container=1;collapsible=0;recursiveResize=0;outlineConnect=0;" parent="1" vertex="1">
          <mxGeometry x="690" y="920" width="100" height="600" as="geometry" />
        </mxCell>
        <mxCell id="D-5Mkm0WoFAVphHgILJh-27" value="" style="html=1;points=[];perimeter=orthogonalPerimeter;" parent="D-5Mkm0WoFAVphHgILJh-4" vertex="1">
          <mxGeometry x="45" y="170" width="10" height="70" as="geometry" />
        </mxCell>
        <mxCell id="D-5Mkm0WoFAVphHgILJh-29" value="白名单消费、查询" style="html=1;verticalAlign=bottom;endArrow=block;rounded=0;entryX=-0.2;entryY=0.15;entryDx=0;entryDy=0;entryPerimeter=0;" parent="D-5Mkm0WoFAVphHgILJh-4" target="D-5Mkm0WoFAVphHgILJh-28" edge="1">
          <mxGeometry width="80" relative="1" as="geometry">
            <mxPoint x="60" y="190" as="sourcePoint" />
            <mxPoint x="140" y="190" as="targetPoint" />
          </mxGeometry>
        </mxCell>
        <mxCell id="D-5Mkm0WoFAVphHgILJh-5" value="无感支付应用" style="shape=umlLifeline;perimeter=lifelinePerimeter;whiteSpace=wrap;html=1;container=1;collapsible=0;recursiveResize=0;outlineConnect=0;" parent="1" vertex="1">
          <mxGeometry x="905" y="920" width="100" height="600" as="geometry" />
        </mxCell>
        <mxCell id="D-5Mkm0WoFAVphHgILJh-19" value="" style="html=1;points=[];perimeter=orthogonalPerimeter;" parent="D-5Mkm0WoFAVphHgILJh-5" vertex="1">
          <mxGeometry x="45" y="70" width="10" height="50" as="geometry" />
        </mxCell>
        <mxCell id="D-5Mkm0WoFAVphHgILJh-28" value="" style="html=1;points=[];perimeter=orthogonalPerimeter;" parent="D-5Mkm0WoFAVphHgILJh-5" vertex="1">
          <mxGeometry x="45" y="180" width="10" height="60" as="geometry" />
        </mxCell>
        <mxCell id="D-5Mkm0WoFAVphHgILJh-38" value="" style="html=1;points=[];perimeter=orthogonalPerimeter;" parent="D-5Mkm0WoFAVphHgILJh-5" vertex="1">
          <mxGeometry x="45" y="280" width="10" height="60" as="geometry" />
        </mxCell>
        <mxCell id="D-5Mkm0WoFAVphHgILJh-37" value="return" style="html=1;verticalAlign=bottom;endArrow=open;dashed=1;endSize=8;rounded=0;" parent="D-5Mkm0WoFAVphHgILJh-5" edge="1">
          <mxGeometry relative="1" as="geometry">
            <mxPoint x="45" y="330" as="sourcePoint" />
            <mxPoint x="-565" y="330" as="targetPoint" />
          </mxGeometry>
        </mxCell>
        <mxCell id="D-5Mkm0WoFAVphHgILJh-40" value="" style="html=1;points=[];perimeter=orthogonalPerimeter;" parent="D-5Mkm0WoFAVphHgILJh-5" vertex="1">
          <mxGeometry x="45" y="360" width="10" height="60" as="geometry" />
        </mxCell>
        <mxCell id="D-5Mkm0WoFAVphHgILJh-11" value="" style="html=1;points=[];perimeter=orthogonalPerimeter;" parent="1" vertex="1">
          <mxGeometry x="325" y="970" width="10" height="70" as="geometry" />
        </mxCell>
        <mxCell id="D-5Mkm0WoFAVphHgILJh-18" value="return" style="html=1;verticalAlign=bottom;endArrow=open;dashed=1;endSize=8;rounded=0;" parent="1" edge="1">
          <mxGeometry relative="1" as="geometry">
            <mxPoint x="940" y="1030" as="sourcePoint" />
            <mxPoint x="340" y="1030" as="targetPoint" />
          </mxGeometry>
        </mxCell>
        <mxCell id="D-5Mkm0WoFAVphHgILJh-20" value="return" style="html=1;verticalAlign=bottom;endArrow=open;dashed=1;endSize=8;rounded=0;" parent="1" edge="1">
          <mxGeometry relative="1" as="geometry">
            <mxPoint x="320" y="1030" as="sourcePoint" />
            <mxPoint x="140" y="1030" as="targetPoint" />
          </mxGeometry>
        </mxCell>
        <mxCell id="D-5Mkm0WoFAVphHgILJh-26" value="白名单消费、查询" style="html=1;verticalAlign=bottom;endArrow=block;rounded=0;entryX=0.2;entryY=0.15;entryDx=0;entryDy=0;entryPerimeter=0;" parent="1" target="D-5Mkm0WoFAVphHgILJh-27" edge="1">
          <mxGeometry width="80" relative="1" as="geometry">
            <mxPoint x="535.5" y="1100" as="sourcePoint" />
            <mxPoint x="730" y="1100" as="targetPoint" />
          </mxGeometry>
        </mxCell>
        <mxCell id="D-5Mkm0WoFAVphHgILJh-30" value="return" style="html=1;verticalAlign=bottom;endArrow=open;dashed=1;endSize=8;rounded=0;" parent="1" edge="1">
          <mxGeometry relative="1" as="geometry">
            <mxPoint x="950" y="1150" as="sourcePoint" />
            <mxPoint x="750" y="1150" as="targetPoint" />
          </mxGeometry>
        </mxCell>
        <mxCell id="D-5Mkm0WoFAVphHgILJh-31" value="return" style="html=1;verticalAlign=bottom;endArrow=open;dashed=1;endSize=8;rounded=0;" parent="1" edge="1">
          <mxGeometry relative="1" as="geometry">
            <mxPoint x="730" y="1150" as="sourcePoint" />
            <mxPoint x="540" y="1150" as="targetPoint" />
          </mxGeometry>
        </mxCell>
        <mxCell id="D-5Mkm0WoFAVphHgILJh-32" value="return" style="html=1;verticalAlign=bottom;endArrow=open;dashed=1;endSize=8;rounded=0;" parent="1" edge="1">
          <mxGeometry relative="1" as="geometry">
            <mxPoint x="520" y="1150" as="sourcePoint" />
            <mxPoint x="335" y="1150" as="targetPoint" />
          </mxGeometry>
        </mxCell>
        <mxCell id="D-5Mkm0WoFAVphHgILJh-33" value="return" style="html=1;verticalAlign=bottom;endArrow=open;dashed=1;endSize=8;rounded=0;" parent="1" edge="1">
          <mxGeometry relative="1" as="geometry">
            <mxPoint x="320" y="1150" as="sourcePoint" />
            <mxPoint x="134.5" y="1150" as="targetPoint" />
          </mxGeometry>
        </mxCell>
        <mxCell id="D-5Mkm0WoFAVphHgILJh-42" value="return" style="html=1;verticalAlign=bottom;endArrow=open;dashed=1;endSize=8;rounded=0;exitX=0;exitY=0.833;exitDx=0;exitDy=0;exitPerimeter=0;" parent="1" source="D-5Mkm0WoFAVphHgILJh-40" edge="1">
          <mxGeometry relative="1" as="geometry">
            <mxPoint x="940" y="1330" as="sourcePoint" />
            <mxPoint x="540" y="1330" as="targetPoint" />
          </mxGeometry>
        </mxCell>
        <mxCell id="xb5AY5iqo3YvJbGLRZmN-33" value="车道软件" style="shape=umlLifeline;perimeter=lifelinePerimeter;whiteSpace=wrap;html=1;container=1;collapsible=0;recursiveResize=0;outlineConnect=0;" vertex="1" parent="1">
          <mxGeometry x="40" y="1700" width="100" height="600" as="geometry" />
        </mxCell>
        <mxCell id="xb5AY5iqo3YvJbGLRZmN-34" value="白名单查询" style="html=1;verticalAlign=bottom;endArrow=block;rounded=0;" edge="1" parent="xb5AY5iqo3YvJbGLRZmN-33" target="xb5AY5iqo3YvJbGLRZmN-38">
          <mxGeometry width="80" relative="1" as="geometry">
            <mxPoint x="50" y="60" as="sourcePoint" />
            <mxPoint x="130" y="60" as="targetPoint" />
          </mxGeometry>
        </mxCell>
        <mxCell id="xb5AY5iqo3YvJbGLRZmN-35" value="" style="html=1;points=[];perimeter=orthogonalPerimeter;" vertex="1" parent="xb5AY5iqo3YvJbGLRZmN-33">
          <mxGeometry x="45" y="50" width="10" height="70" as="geometry" />
        </mxCell>
        <mxCell id="xb5AY5iqo3YvJbGLRZmN-36" value="" style="html=1;points=[];perimeter=orthogonalPerimeter;" vertex="1" parent="xb5AY5iqo3YvJbGLRZmN-33">
          <mxGeometry x="45" y="150" width="10" height="90" as="geometry" />
        </mxCell>
        <mxCell id="xb5AY5iqo3YvJbGLRZmN-37" value="白名单消费、查询" style="html=1;verticalAlign=bottom;endArrow=block;rounded=0;" edge="1" parent="xb5AY5iqo3YvJbGLRZmN-33">
          <mxGeometry width="80" relative="1" as="geometry">
            <mxPoint x="60" y="160" as="sourcePoint" />
            <mxPoint x="240" y="160" as="targetPoint" />
          </mxGeometry>
        </mxCell>
        <mxCell id="xb5AY5iqo3YvJbGLRZmN-38" value="POS 串口程序 &quot;山东高速&quot;" style="shape=umlLifeline;perimeter=lifelinePerimeter;whiteSpace=wrap;html=1;container=1;collapsible=0;recursiveResize=0;outlineConnect=0;" vertex="1" parent="1">
          <mxGeometry x="240" y="1700" width="100" height="600" as="geometry" />
        </mxCell>
        <mxCell id="xb5AY5iqo3YvJbGLRZmN-39" value="" style="html=1;points=[];perimeter=orthogonalPerimeter;" vertex="1" parent="xb5AY5iqo3YvJbGLRZmN-38">
          <mxGeometry x="45" y="150" width="10" height="90" as="geometry" />
        </mxCell>
        <mxCell id="xb5AY5iqo3YvJbGLRZmN-40" value="" style="html=1;points=[];perimeter=orthogonalPerimeter;" vertex="1" parent="xb5AY5iqo3YvJbGLRZmN-38">
          <mxGeometry x="45" y="355" width="10" height="60" as="geometry" />
        </mxCell>
        <mxCell id="xb5AY5iqo3YvJbGLRZmN-41" value="白名单查询" style="html=1;verticalAlign=bottom;endArrow=block;rounded=0;" edge="1" parent="xb5AY5iqo3YvJbGLRZmN-38" target="xb5AY5iqo3YvJbGLRZmN-51">
          <mxGeometry width="80" relative="1" as="geometry">
            <mxPoint x="60" y="80" as="sourcePoint" />
            <mxPoint x="140" y="80" as="targetPoint" />
          </mxGeometry>
        </mxCell>
        <mxCell id="xb5AY5iqo3YvJbGLRZmN-42" value="白名单消费、查询" style="html=1;verticalAlign=bottom;endArrow=block;rounded=0;" edge="1" parent="xb5AY5iqo3YvJbGLRZmN-38">
          <mxGeometry width="80" relative="1" as="geometry">
            <mxPoint x="60" y="170" as="sourcePoint" />
            <mxPoint x="240" y="170" as="targetPoint" />
          </mxGeometry>
        </mxCell>
        <mxCell id="xb5AY5iqo3YvJbGLRZmN-43" value="串口上送日志" style="html=1;verticalAlign=bottom;endArrow=block;rounded=0;" edge="1" parent="xb5AY5iqo3YvJbGLRZmN-38">
          <mxGeometry width="80" relative="1" as="geometry">
            <mxPoint x="60" y="365" as="sourcePoint" />
            <mxPoint x="674.5" y="365" as="targetPoint" />
          </mxGeometry>
        </mxCell>
        <mxCell id="xb5AY5iqo3YvJbGLRZmN-44" value="POS &quot;信联聚合支付&quot;" style="shape=umlLifeline;perimeter=lifelinePerimeter;whiteSpace=wrap;html=1;container=1;collapsible=0;recursiveResize=0;outlineConnect=0;" vertex="1" parent="1">
          <mxGeometry x="440" y="1700" width="100" height="600" as="geometry" />
        </mxCell>
        <mxCell id="xb5AY5iqo3YvJbGLRZmN-45" value="" style="html=1;points=[];perimeter=orthogonalPerimeter;" vertex="1" parent="xb5AY5iqo3YvJbGLRZmN-44">
          <mxGeometry x="45" y="160" width="10" height="80" as="geometry" />
        </mxCell>
        <mxCell id="xb5AY5iqo3YvJbGLRZmN-46" value="" style="html=1;points=[];perimeter=orthogonalPerimeter;" vertex="1" parent="xb5AY5iqo3YvJbGLRZmN-44">
          <mxGeometry x="45" y="435" width="10" height="60" as="geometry" />
        </mxCell>
        <mxCell id="xb5AY5iqo3YvJbGLRZmN-47" value="信联聚合支付上送日志" style="html=1;verticalAlign=bottom;endArrow=block;rounded=0;entryX=-0.2;entryY=0.2;entryDx=0;entryDy=0;entryPerimeter=0;" edge="1" parent="xb5AY5iqo3YvJbGLRZmN-44" target="xb5AY5iqo3YvJbGLRZmN-56">
          <mxGeometry width="80" relative="1" as="geometry">
            <mxPoint x="60" y="445" as="sourcePoint" />
            <mxPoint x="140" y="445" as="targetPoint" />
          </mxGeometry>
        </mxCell>
        <mxCell id="xb5AY5iqo3YvJbGLRZmN-48" value="老聚合应用" style="shape=umlLifeline;perimeter=lifelinePerimeter;whiteSpace=wrap;html=1;container=1;collapsible=0;recursiveResize=0;outlineConnect=0;" vertex="1" parent="1">
          <mxGeometry x="650" y="1700" width="100" height="600" as="geometry" />
        </mxCell>
        <mxCell id="xb5AY5iqo3YvJbGLRZmN-49" value="" style="html=1;points=[];perimeter=orthogonalPerimeter;" vertex="1" parent="xb5AY5iqo3YvJbGLRZmN-48">
          <mxGeometry x="45" y="170" width="10" height="70" as="geometry" />
        </mxCell>
        <mxCell id="xb5AY5iqo3YvJbGLRZmN-50" value="白名单消费、查询" style="html=1;verticalAlign=bottom;endArrow=block;rounded=0;entryX=-0.2;entryY=0.15;entryDx=0;entryDy=0;entryPerimeter=0;" edge="1" parent="xb5AY5iqo3YvJbGLRZmN-48" target="xb5AY5iqo3YvJbGLRZmN-53">
          <mxGeometry width="80" relative="1" as="geometry">
            <mxPoint x="60" y="190" as="sourcePoint" />
            <mxPoint x="140" y="190" as="targetPoint" />
          </mxGeometry>
        </mxCell>
        <mxCell id="xb5AY5iqo3YvJbGLRZmN-51" value="无感支付应用" style="shape=umlLifeline;perimeter=lifelinePerimeter;whiteSpace=wrap;html=1;container=1;collapsible=0;recursiveResize=0;outlineConnect=0;" vertex="1" parent="1">
          <mxGeometry x="865" y="1700" width="100" height="600" as="geometry" />
        </mxCell>
        <mxCell id="xb5AY5iqo3YvJbGLRZmN-52" value="" style="html=1;points=[];perimeter=orthogonalPerimeter;" vertex="1" parent="xb5AY5iqo3YvJbGLRZmN-51">
          <mxGeometry x="45" y="70" width="10" height="50" as="geometry" />
        </mxCell>
        <mxCell id="xb5AY5iqo3YvJbGLRZmN-53" value="" style="html=1;points=[];perimeter=orthogonalPerimeter;" vertex="1" parent="xb5AY5iqo3YvJbGLRZmN-51">
          <mxGeometry x="45" y="180" width="10" height="60" as="geometry" />
        </mxCell>
        <mxCell id="xb5AY5iqo3YvJbGLRZmN-54" value="" style="html=1;points=[];perimeter=orthogonalPerimeter;" vertex="1" parent="xb5AY5iqo3YvJbGLRZmN-51">
          <mxGeometry x="45" y="355" width="10" height="60" as="geometry" />
        </mxCell>
        <mxCell id="xb5AY5iqo3YvJbGLRZmN-55" value="return" style="html=1;verticalAlign=bottom;endArrow=open;dashed=1;endSize=8;rounded=0;" edge="1" parent="xb5AY5iqo3YvJbGLRZmN-51">
          <mxGeometry relative="1" as="geometry">
            <mxPoint x="45" y="405" as="sourcePoint" />
            <mxPoint x="-565" y="405" as="targetPoint" />
          </mxGeometry>
        </mxCell>
        <mxCell id="xb5AY5iqo3YvJbGLRZmN-56" value="" style="html=1;points=[];perimeter=orthogonalPerimeter;" vertex="1" parent="xb5AY5iqo3YvJbGLRZmN-51">
          <mxGeometry x="45" y="435" width="10" height="60" as="geometry" />
        </mxCell>
        <mxCell id="xb5AY5iqo3YvJbGLRZmN-73" value="白名单消费发起代扣" style="html=1;verticalAlign=bottom;endArrow=block;rounded=0;" edge="1" parent="xb5AY5iqo3YvJbGLRZmN-51" target="xb5AY5iqo3YvJbGLRZmN-70">
          <mxGeometry width="80" relative="1" as="geometry">
            <mxPoint x="55" y="190" as="sourcePoint" />
            <mxPoint x="135" y="190" as="targetPoint" />
          </mxGeometry>
        </mxCell>
        <mxCell id="xb5AY5iqo3YvJbGLRZmN-113" value="" style="html=1;points=[];perimeter=orthogonalPerimeter;" vertex="1" parent="xb5AY5iqo3YvJbGLRZmN-51">
          <mxGeometry x="45" y="275" width="10" height="60" as="geometry" />
        </mxCell>
        <mxCell id="xb5AY5iqo3YvJbGLRZmN-57" value="" style="html=1;points=[];perimeter=orthogonalPerimeter;" vertex="1" parent="1">
          <mxGeometry x="285" y="1750" width="10" height="70" as="geometry" />
        </mxCell>
        <mxCell id="xb5AY5iqo3YvJbGLRZmN-58" value="return" style="html=1;verticalAlign=bottom;endArrow=open;dashed=1;endSize=8;rounded=0;" edge="1" parent="1">
          <mxGeometry relative="1" as="geometry">
            <mxPoint x="900" y="1810" as="sourcePoint" />
            <mxPoint x="300" y="1810" as="targetPoint" />
          </mxGeometry>
        </mxCell>
        <mxCell id="xb5AY5iqo3YvJbGLRZmN-59" value="return" style="html=1;verticalAlign=bottom;endArrow=open;dashed=1;endSize=8;rounded=0;" edge="1" parent="1">
          <mxGeometry relative="1" as="geometry">
            <mxPoint x="280" y="1810" as="sourcePoint" />
            <mxPoint x="100" y="1810" as="targetPoint" />
          </mxGeometry>
        </mxCell>
        <mxCell id="xb5AY5iqo3YvJbGLRZmN-60" value="白名单消费、查询" style="html=1;verticalAlign=bottom;endArrow=block;rounded=0;entryX=0.2;entryY=0.15;entryDx=0;entryDy=0;entryPerimeter=0;" edge="1" parent="1" target="xb5AY5iqo3YvJbGLRZmN-49">
          <mxGeometry width="80" relative="1" as="geometry">
            <mxPoint x="495.5" y="1880" as="sourcePoint" />
            <mxPoint x="690" y="1880" as="targetPoint" />
          </mxGeometry>
        </mxCell>
        <mxCell id="xb5AY5iqo3YvJbGLRZmN-61" value="return" style="html=1;verticalAlign=bottom;endArrow=open;dashed=1;endSize=8;rounded=0;" edge="1" parent="1">
          <mxGeometry relative="1" as="geometry">
            <mxPoint x="910" y="1930" as="sourcePoint" />
            <mxPoint x="710" y="1930" as="targetPoint" />
          </mxGeometry>
        </mxCell>
        <mxCell id="xb5AY5iqo3YvJbGLRZmN-62" value="return" style="html=1;verticalAlign=bottom;endArrow=open;dashed=1;endSize=8;rounded=0;" edge="1" parent="1">
          <mxGeometry relative="1" as="geometry">
            <mxPoint x="690" y="1930" as="sourcePoint" />
            <mxPoint x="500" y="1930" as="targetPoint" />
          </mxGeometry>
        </mxCell>
        <mxCell id="xb5AY5iqo3YvJbGLRZmN-63" value="return" style="html=1;verticalAlign=bottom;endArrow=open;dashed=1;endSize=8;rounded=0;" edge="1" parent="1">
          <mxGeometry relative="1" as="geometry">
            <mxPoint x="480" y="1930" as="sourcePoint" />
            <mxPoint x="295" y="1930" as="targetPoint" />
          </mxGeometry>
        </mxCell>
        <mxCell id="xb5AY5iqo3YvJbGLRZmN-64" value="return" style="html=1;verticalAlign=bottom;endArrow=open;dashed=1;endSize=8;rounded=0;" edge="1" parent="1">
          <mxGeometry relative="1" as="geometry">
            <mxPoint x="280" y="1930" as="sourcePoint" />
            <mxPoint x="94.5" y="1930" as="targetPoint" />
          </mxGeometry>
        </mxCell>
        <mxCell id="xb5AY5iqo3YvJbGLRZmN-65" value="return" style="html=1;verticalAlign=bottom;endArrow=open;dashed=1;endSize=8;rounded=0;exitX=0;exitY=0.833;exitDx=0;exitDy=0;exitPerimeter=0;" edge="1" parent="1" source="xb5AY5iqo3YvJbGLRZmN-56">
          <mxGeometry relative="1" as="geometry">
            <mxPoint x="900" y="2185" as="sourcePoint" />
            <mxPoint x="500" y="2185" as="targetPoint" />
          </mxGeometry>
        </mxCell>
        <mxCell id="xb5AY5iqo3YvJbGLRZmN-70" value="老聚合" style="shape=umlLifeline;perimeter=lifelinePerimeter;whiteSpace=wrap;html=1;container=1;collapsible=0;recursiveResize=0;outlineConnect=0;" vertex="1" parent="1">
          <mxGeometry x="1060" y="1700" width="100" height="600" as="geometry" />
        </mxCell>
        <mxCell id="xb5AY5iqo3YvJbGLRZmN-72" value="" style="html=1;points=[];perimeter=orthogonalPerimeter;" vertex="1" parent="xb5AY5iqo3YvJbGLRZmN-70">
          <mxGeometry x="45" y="175" width="10" height="60" as="geometry" />
        </mxCell>
        <mxCell id="xb5AY5iqo3YvJbGLRZmN-75" value="委托代扣" style="html=1;verticalAlign=bottom;endArrow=block;rounded=0;" edge="1" parent="xb5AY5iqo3YvJbGLRZmN-70" target="xb5AY5iqo3YvJbGLRZmN-71">
          <mxGeometry width="80" relative="1" as="geometry">
            <mxPoint x="60" y="190" as="sourcePoint" />
            <mxPoint x="140" y="190" as="targetPoint" />
          </mxGeometry>
        </mxCell>
        <mxCell id="xb5AY5iqo3YvJbGLRZmN-110" value="" style="html=1;points=[];perimeter=orthogonalPerimeter;" vertex="1" parent="xb5AY5iqo3YvJbGLRZmN-70">
          <mxGeometry x="45" y="270" width="10" height="70" as="geometry" />
        </mxCell>
        <mxCell id="xb5AY5iqo3YvJbGLRZmN-71" value="微信、支付宝" style="shape=umlLifeline;perimeter=lifelinePerimeter;whiteSpace=wrap;html=1;container=1;collapsible=0;recursiveResize=0;outlineConnect=0;" vertex="1" parent="1">
          <mxGeometry x="1260" y="1700" width="100" height="610" as="geometry" />
        </mxCell>
        <mxCell id="xb5AY5iqo3YvJbGLRZmN-74" value="" style="html=1;points=[];perimeter=orthogonalPerimeter;" vertex="1" parent="xb5AY5iqo3YvJbGLRZmN-71">
          <mxGeometry x="45" y="175" width="10" height="165" as="geometry" />
        </mxCell>
        <mxCell id="xb5AY5iqo3YvJbGLRZmN-85" value="return" style="html=1;verticalAlign=bottom;endArrow=open;dashed=1;endSize=8;rounded=0;" edge="1" parent="xb5AY5iqo3YvJbGLRZmN-71">
          <mxGeometry relative="1" as="geometry">
            <mxPoint x="40" y="230" as="sourcePoint" />
            <mxPoint x="-140" y="230" as="targetPoint" />
          </mxGeometry>
        </mxCell>
        <mxCell id="xb5AY5iqo3YvJbGLRZmN-78" value="e高速app" style="shape=umlLifeline;perimeter=lifelinePerimeter;whiteSpace=wrap;html=1;container=1;collapsible=0;recursiveResize=0;outlineConnect=0;" vertex="1" parent="1">
          <mxGeometry x="40" y="2400" width="100" height="520" as="geometry" />
        </mxCell>
        <mxCell id="xb5AY5iqo3YvJbGLRZmN-88" value="" style="html=1;points=[];perimeter=orthogonalPerimeter;" vertex="1" parent="xb5AY5iqo3YvJbGLRZmN-78">
          <mxGeometry x="45" y="70" width="10" height="60" as="geometry" />
        </mxCell>
        <mxCell id="xb5AY5iqo3YvJbGLRZmN-97" value="" style="html=1;points=[];perimeter=orthogonalPerimeter;" vertex="1" parent="xb5AY5iqo3YvJbGLRZmN-78">
          <mxGeometry x="45" y="250" width="10" height="80" as="geometry" />
        </mxCell>
        <mxCell id="xb5AY5iqo3YvJbGLRZmN-99" value="查询签约信息" style="html=1;verticalAlign=bottom;endArrow=block;rounded=0;" edge="1" parent="xb5AY5iqo3YvJbGLRZmN-78">
          <mxGeometry width="80" relative="1" as="geometry">
            <mxPoint x="60" y="260" as="sourcePoint" />
            <mxPoint x="240" y="260" as="targetPoint" />
          </mxGeometry>
        </mxCell>
        <mxCell id="xb5AY5iqo3YvJbGLRZmN-116" value="" style="html=1;points=[];perimeter=orthogonalPerimeter;" vertex="1" parent="xb5AY5iqo3YvJbGLRZmN-78">
          <mxGeometry x="45" y="370" width="10" height="80" as="geometry" />
        </mxCell>
        <mxCell id="xb5AY5iqo3YvJbGLRZmN-118" value="车辆绑定、解绑" style="html=1;verticalAlign=bottom;endArrow=block;rounded=0;entryX=-0.1;entryY=0.125;entryDx=0;entryDy=0;entryPerimeter=0;" edge="1" parent="xb5AY5iqo3YvJbGLRZmN-78" target="xb5AY5iqo3YvJbGLRZmN-117">
          <mxGeometry width="80" relative="1" as="geometry">
            <mxPoint x="60" y="380" as="sourcePoint" />
            <mxPoint x="140" y="380" as="targetPoint" />
          </mxGeometry>
        </mxCell>
        <mxCell id="xb5AY5iqo3YvJbGLRZmN-79" value="无感支付" style="shape=umlLifeline;perimeter=lifelinePerimeter;whiteSpace=wrap;html=1;container=1;collapsible=0;recursiveResize=0;outlineConnect=0;" vertex="1" parent="1">
          <mxGeometry x="240" y="2400" width="100" height="520" as="geometry" />
        </mxCell>
        <mxCell id="xb5AY5iqo3YvJbGLRZmN-89" value="" style="html=1;points=[];perimeter=orthogonalPerimeter;" vertex="1" parent="xb5AY5iqo3YvJbGLRZmN-79">
          <mxGeometry x="45" y="70" width="10" height="60" as="geometry" />
        </mxCell>
        <mxCell id="xb5AY5iqo3YvJbGLRZmN-91" value="签约、解约" style="html=1;verticalAlign=bottom;endArrow=block;rounded=0;" edge="1" parent="xb5AY5iqo3YvJbGLRZmN-79">
          <mxGeometry width="80" relative="1" as="geometry">
            <mxPoint x="60" y="90" as="sourcePoint" />
            <mxPoint x="240" y="90" as="targetPoint" />
          </mxGeometry>
        </mxCell>
        <mxCell id="xb5AY5iqo3YvJbGLRZmN-98" value="" style="html=1;points=[];perimeter=orthogonalPerimeter;" vertex="1" parent="xb5AY5iqo3YvJbGLRZmN-79">
          <mxGeometry x="45" y="250" width="10" height="80" as="geometry" />
        </mxCell>
        <mxCell id="xb5AY5iqo3YvJbGLRZmN-101" value="支付宝渠道查询支付宝签约状态" style="html=1;verticalAlign=bottom;endArrow=block;rounded=0;" edge="1" parent="xb5AY5iqo3YvJbGLRZmN-79">
          <mxGeometry width="80" relative="1" as="geometry">
            <mxPoint x="60" y="270" as="sourcePoint" />
            <mxPoint x="240" y="270" as="targetPoint" />
          </mxGeometry>
        </mxCell>
        <mxCell id="xb5AY5iqo3YvJbGLRZmN-103" value="" style="html=1;points=[];perimeter=orthogonalPerimeter;" vertex="1" parent="xb5AY5iqo3YvJbGLRZmN-79">
          <mxGeometry x="45" y="160" width="10" height="60" as="geometry" />
        </mxCell>
        <mxCell id="xb5AY5iqo3YvJbGLRZmN-117" value="" style="html=1;points=[];perimeter=orthogonalPerimeter;" vertex="1" parent="xb5AY5iqo3YvJbGLRZmN-79">
          <mxGeometry x="45" y="370" width="10" height="80" as="geometry" />
        </mxCell>
        <mxCell id="xb5AY5iqo3YvJbGLRZmN-80" value="微信、支付宝" style="shape=umlLifeline;perimeter=lifelinePerimeter;whiteSpace=wrap;html=1;container=1;collapsible=0;recursiveResize=0;outlineConnect=0;" vertex="1" parent="1">
          <mxGeometry x="440" y="2400" width="100" height="520" as="geometry" />
        </mxCell>
        <mxCell id="xb5AY5iqo3YvJbGLRZmN-90" value="" style="html=1;points=[];perimeter=orthogonalPerimeter;" vertex="1" parent="xb5AY5iqo3YvJbGLRZmN-80">
          <mxGeometry x="45" y="70" width="10" height="150" as="geometry" />
        </mxCell>
        <mxCell id="xb5AY5iqo3YvJbGLRZmN-100" value="" style="html=1;points=[];perimeter=orthogonalPerimeter;" vertex="1" parent="xb5AY5iqo3YvJbGLRZmN-80">
          <mxGeometry x="45" y="250" width="10" height="80" as="geometry" />
        </mxCell>
        <mxCell id="xb5AY5iqo3YvJbGLRZmN-86" value="return" style="html=1;verticalAlign=bottom;endArrow=open;dashed=1;endSize=8;rounded=0;" edge="1" parent="1">
          <mxGeometry relative="1" as="geometry">
            <mxPoint x="1100" y="1930" as="sourcePoint" />
            <mxPoint x="920" y="1930" as="targetPoint" />
          </mxGeometry>
        </mxCell>
        <mxCell id="xb5AY5iqo3YvJbGLRZmN-87" value="签约、解约" style="html=1;verticalAlign=bottom;endArrow=block;rounded=0;" edge="1" parent="1" target="xb5AY5iqo3YvJbGLRZmN-79">
          <mxGeometry width="80" relative="1" as="geometry">
            <mxPoint x="100" y="2480" as="sourcePoint" />
            <mxPoint x="180" y="2480" as="targetPoint" />
          </mxGeometry>
        </mxCell>
        <mxCell id="xb5AY5iqo3YvJbGLRZmN-92" value="return" style="html=1;verticalAlign=bottom;endArrow=open;dashed=1;endSize=8;rounded=0;" edge="1" parent="1">
          <mxGeometry relative="1" as="geometry">
            <mxPoint x="480" y="2520" as="sourcePoint" />
            <mxPoint x="300" y="2520" as="targetPoint" />
          </mxGeometry>
        </mxCell>
        <mxCell id="xb5AY5iqo3YvJbGLRZmN-93" value="return" style="html=1;verticalAlign=bottom;endArrow=open;dashed=1;endSize=8;rounded=0;" edge="1" parent="1">
          <mxGeometry relative="1" as="geometry">
            <mxPoint x="280" y="2520" as="sourcePoint" />
            <mxPoint x="100" y="2520" as="targetPoint" />
          </mxGeometry>
        </mxCell>
        <mxCell id="xb5AY5iqo3YvJbGLRZmN-102" value="return" style="html=1;verticalAlign=bottom;endArrow=open;dashed=1;endSize=8;rounded=0;" edge="1" parent="1">
          <mxGeometry relative="1" as="geometry">
            <mxPoint x="280" y="2710" as="sourcePoint" />
            <mxPoint x="100" y="2710" as="targetPoint" />
          </mxGeometry>
        </mxCell>
        <mxCell id="xb5AY5iqo3YvJbGLRZmN-104" value="微信、支付宝回调" style="html=1;verticalAlign=bottom;endArrow=block;entryX=1;entryY=0;rounded=0;" edge="1" target="xb5AY5iqo3YvJbGLRZmN-103" parent="1">
          <mxGeometry relative="1" as="geometry">
            <mxPoint x="480" y="2560" as="sourcePoint" />
          </mxGeometry>
        </mxCell>
        <mxCell id="xb5AY5iqo3YvJbGLRZmN-105" value="return" style="html=1;verticalAlign=bottom;endArrow=open;dashed=1;endSize=8;exitX=1;exitY=0.95;rounded=0;" edge="1" source="xb5AY5iqo3YvJbGLRZmN-103" parent="1">
          <mxGeometry relative="1" as="geometry">
            <mxPoint x="480" y="2617" as="targetPoint" />
          </mxGeometry>
        </mxCell>
        <mxCell id="xb5AY5iqo3YvJbGLRZmN-106" value="return" style="html=1;verticalAlign=bottom;endArrow=open;dashed=1;endSize=8;rounded=0;" edge="1" parent="1">
          <mxGeometry relative="1" as="geometry">
            <mxPoint x="480" y="2710" as="sourcePoint" />
            <mxPoint x="300" y="2710" as="targetPoint" />
          </mxGeometry>
        </mxCell>
        <mxCell id="xb5AY5iqo3YvJbGLRZmN-111" value="支付宝、微信回调" style="html=1;verticalAlign=bottom;endArrow=block;entryX=1;entryY=0;rounded=0;" edge="1" target="xb5AY5iqo3YvJbGLRZmN-110" parent="1">
          <mxGeometry relative="1" as="geometry">
            <mxPoint x="1300" y="1970" as="sourcePoint" />
          </mxGeometry>
        </mxCell>
        <mxCell id="xb5AY5iqo3YvJbGLRZmN-112" value="return" style="html=1;verticalAlign=bottom;endArrow=open;dashed=1;endSize=8;rounded=0;" edge="1" parent="1">
          <mxGeometry relative="1" as="geometry">
            <mxPoint x="1300" y="2030" as="targetPoint" />
            <mxPoint x="1120" y="2030" as="sourcePoint" />
          </mxGeometry>
        </mxCell>
        <mxCell id="xb5AY5iqo3YvJbGLRZmN-114" value="支付宝、微信回调" style="html=1;verticalAlign=bottom;endArrow=block;entryX=1;entryY=0;rounded=0;" edge="1" target="xb5AY5iqo3YvJbGLRZmN-113" parent="1">
          <mxGeometry relative="1" as="geometry">
            <mxPoint x="1100" y="1975" as="sourcePoint" />
          </mxGeometry>
        </mxCell>
        <mxCell id="xb5AY5iqo3YvJbGLRZmN-115" value="return" style="html=1;verticalAlign=bottom;endArrow=open;dashed=1;endSize=8;exitX=1;exitY=0.95;rounded=0;" edge="1" source="xb5AY5iqo3YvJbGLRZmN-113" parent="1">
          <mxGeometry relative="1" as="geometry">
            <mxPoint x="1100" y="2032" as="targetPoint" />
          </mxGeometry>
        </mxCell>
        <mxCell id="xb5AY5iqo3YvJbGLRZmN-119" value="return" style="html=1;verticalAlign=bottom;endArrow=open;dashed=1;endSize=8;rounded=0;" edge="1" parent="1">
          <mxGeometry relative="1" as="geometry">
            <mxPoint x="280" y="2840" as="sourcePoint" />
            <mxPoint x="100" y="2840" as="targetPoint" />
          </mxGeometry>
        </mxCell>
        <mxCell id="xb5AY5iqo3YvJbGLRZmN-120" value="第三方" style="shape=umlLifeline;perimeter=lifelinePerimeter;whiteSpace=wrap;html=1;container=1;collapsible=0;recursiveResize=0;outlineConnect=0;" vertex="1" parent="1">
          <mxGeometry x="640" y="2400" width="100" height="520" as="geometry" />
        </mxCell>
        <mxCell id="xb5AY5iqo3YvJbGLRZmN-123" value="" style="html=1;points=[];perimeter=orthogonalPerimeter;" vertex="1" parent="xb5AY5iqo3YvJbGLRZmN-120">
          <mxGeometry x="45" y="80" width="10" height="440" as="geometry" />
        </mxCell>
        <mxCell id="xb5AY5iqo3YvJbGLRZmN-125" value="微信点击确认支付，请求ietc&lt;br&gt;(聚合商户号+终端编号+金额+第三方订单号)" style="html=1;verticalAlign=bottom;endArrow=block;rounded=0;" edge="1" parent="xb5AY5iqo3YvJbGLRZmN-120">
          <mxGeometry width="80" relative="1" as="geometry">
            <mxPoint x="60" y="90" as="sourcePoint" />
            <mxPoint x="520" y="90" as="targetPoint" />
          </mxGeometry>
        </mxCell>
        <mxCell id="xb5AY5iqo3YvJbGLRZmN-121" value="ietc-h5" style="shape=umlLifeline;perimeter=lifelinePerimeter;whiteSpace=wrap;html=1;container=1;collapsible=0;recursiveResize=0;outlineConnect=0;" vertex="1" parent="1">
          <mxGeometry x="880" y="2400" width="100" height="520" as="geometry" />
        </mxCell>
        <mxCell id="xb5AY5iqo3YvJbGLRZmN-128" value="" style="html=1;points=[];perimeter=orthogonalPerimeter;" vertex="1" parent="xb5AY5iqo3YvJbGLRZmN-121">
          <mxGeometry x="45" y="180" width="10" height="140" as="geometry" />
        </mxCell>
        <mxCell id="xb5AY5iqo3YvJbGLRZmN-130" value="" style="html=1;points=[];perimeter=orthogonalPerimeter;rounded=0;sketch=0;" vertex="1" parent="xb5AY5iqo3YvJbGLRZmN-121">
          <mxGeometry x="50" y="250" width="10" height="40" as="geometry" />
        </mxCell>
        <mxCell id="xb5AY5iqo3YvJbGLRZmN-131" value="用户支付后，微信回调函数&lt;br&gt;返回支付结果，展示支付结果页" style="edgeStyle=orthogonalEdgeStyle;html=1;align=left;spacingLeft=2;endArrow=block;rounded=0;entryX=1;entryY=0;sketch=0;curved=0;" edge="1" target="xb5AY5iqo3YvJbGLRZmN-130" parent="xb5AY5iqo3YvJbGLRZmN-121">
          <mxGeometry relative="1" as="geometry">
            <mxPoint x="55" y="230" as="sourcePoint" />
            <Array as="points">
              <mxPoint x="85" y="230" />
            </Array>
          </mxGeometry>
        </mxCell>
        <mxCell id="xb5AY5iqo3YvJbGLRZmN-122" value="ietc-后台" style="shape=umlLifeline;perimeter=lifelinePerimeter;whiteSpace=wrap;html=1;container=1;collapsible=0;recursiveResize=0;outlineConnect=0;" vertex="1" parent="1">
          <mxGeometry x="1120" y="2400" width="100" height="520" as="geometry" />
        </mxCell>
        <mxCell id="xb5AY5iqo3YvJbGLRZmN-124" value="" style="html=1;points=[];perimeter=orthogonalPerimeter;" vertex="1" parent="xb5AY5iqo3YvJbGLRZmN-122">
          <mxGeometry x="45" y="80" width="10" height="440" as="geometry" />
        </mxCell>
        <mxCell id="xb5AY5iqo3YvJbGLRZmN-126" value="" style="html=1;points=[];perimeter=orthogonalPerimeter;" vertex="1" parent="xb5AY5iqo3YvJbGLRZmN-122">
          <mxGeometry x="50" y="130" width="10" height="40" as="geometry" />
        </mxCell>
        <mxCell id="xb5AY5iqo3YvJbGLRZmN-127" value="创建预订单" style="edgeStyle=orthogonalEdgeStyle;html=1;align=left;spacingLeft=2;endArrow=block;rounded=0;entryX=1;entryY=0;" edge="1" target="xb5AY5iqo3YvJbGLRZmN-126" parent="xb5AY5iqo3YvJbGLRZmN-122">
          <mxGeometry relative="1" as="geometry">
            <mxPoint x="55" y="110" as="sourcePoint" />
            <Array as="points">
              <mxPoint x="85" y="110" />
            </Array>
          </mxGeometry>
        </mxCell>
        <mxCell id="xb5AY5iqo3YvJbGLRZmN-134" value="" style="html=1;points=[];perimeter=orthogonalPerimeter;rounded=0;sketch=0;" vertex="1" parent="xb5AY5iqo3YvJbGLRZmN-122">
          <mxGeometry x="50" y="290" width="10" height="40" as="geometry" />
        </mxCell>
        <mxCell id="xb5AY5iqo3YvJbGLRZmN-135" value="订单更新支付状态" style="edgeStyle=orthogonalEdgeStyle;html=1;align=left;spacingLeft=2;endArrow=block;rounded=0;entryX=1;entryY=0;sketch=0;curved=0;" edge="1" target="xb5AY5iqo3YvJbGLRZmN-134" parent="xb5AY5iqo3YvJbGLRZmN-122">
          <mxGeometry relative="1" as="geometry">
            <mxPoint x="55" y="270" as="sourcePoint" />
            <Array as="points">
              <mxPoint x="85" y="270" />
            </Array>
          </mxGeometry>
        </mxCell>
        <mxCell id="xb5AY5iqo3YvJbGLRZmN-129" value="返回微信唤起收银台参数" style="html=1;verticalAlign=bottom;endArrow=open;dashed=1;endSize=8;rounded=1;sketch=0;curved=0;" edge="1" parent="1">
          <mxGeometry relative="1" as="geometry">
            <mxPoint x="1160" y="2600" as="sourcePoint" />
            <mxPoint x="940" y="2600" as="targetPoint" />
          </mxGeometry>
        </mxCell>
        <mxCell id="xb5AY5iqo3YvJbGLRZmN-136" value="支付结果通知" style="html=1;verticalAlign=bottom;endArrow=open;dashed=1;endSize=8;rounded=1;sketch=0;curved=0;" edge="1" parent="1">
          <mxGeometry relative="1" as="geometry">
            <mxPoint x="1160" y="2750" as="sourcePoint" />
            <mxPoint x="700" y="2750" as="targetPoint" />
          </mxGeometry>
        </mxCell>
      </root>
    </mxGraphModel>
  </diagram>
</mxfile>
